<svg width="38" height="38" viewBox="0 0 38 38" xmlns="http://www.w3.org/2000/svg">
<rect width="38" height="38" rx="8" fill="#F9F9FF"/>
<path opacity="0.5" d="M15.5 12C15.5 11.4688 15.9375 11 16.5 11C17.0312 11 17.5 11.4688 17.5 12V13H18.5V12C18.5 11.4688 18.9375 11 19.5 11C20.0312 11 20.5 11.4688 20.5 12V13C20.5 13.0625 20.4688 13.125 20.4688 13.1562C21.9375 13.5938 23 14.9375 23 16.5C23 17.2812 22.75 17.9688 22.3438 18.5312C23.3125 19.1562 24 20.25 24 21.5C24 23.4375 22.4062 25 20.5 25V26C20.5 26.5625 20.0312 27 19.5 27C18.9375 27 18.5 26.5625 18.5 26V25H17.5V26C17.5 26.5625 17.0312 27 16.5 27C15.9375 27 15.5 26.5625 15.5 26V25H15.2812C14.5625 25 14 24.4375 14 23.7188V14.1875C14 13.5312 14.5 13 15.1562 13H15.5V12ZM19.5 18C20.3125 18 21 17.3438 21 16.5C21 15.6875 20.3125 15 19.5 15H16V18H19.5ZM16 20V23H20.5C21.3125 23 22 22.3438 22 21.5C22 20.6875 21.3125 20 20.5 20H16Z" fill="#0D121F"/>
</svg>
