<svg width="52" height="16" viewBox="0 0 52 16" fill="none" xmlns="http://www.w3.org/2000/svg">
<path d="M30.2014 0.665222C32.5846 -0.256851 35.2941 -0.185922 37.6915 0.665222C37.5071 1.80008 37.3085 2.93494 37.1099 4.0698C35.8048 3.43144 34.3153 3.14773 32.8825 3.33214C32.2584 3.41725 31.5491 3.65841 31.2512 4.2684C31.0668 4.6656 31.3079 5.11954 31.6342 5.37489C32.8116 6.29696 34.3295 6.6516 35.4927 7.61623C36.4148 8.32552 37.1241 9.41782 37.0673 10.6236C37.1382 12.1415 36.3438 13.631 35.1097 14.5105C33.5351 15.6454 31.5491 15.9716 29.6482 16C28.0877 15.9149 26.4989 15.773 25.052 15.163C25.1939 13.9856 25.435 12.8224 25.6194 11.6592C27.2366 12.4394 29.0524 12.9075 30.854 12.6664C31.4072 12.5671 31.9888 12.3826 32.3718 11.9429C32.6697 11.6024 32.7265 11.0492 32.457 10.6803C32.0456 10.1129 31.393 9.8292 30.783 9.51712C29.4921 8.92132 28.1445 8.22622 27.3217 7.02043C26.5557 5.91394 26.6266 4.42444 27.2082 3.26121C27.804 2.01287 28.9673 1.16172 30.2014 0.665222Z" fill="#004489"/>
<path d="M0 0.296875C2.22716 0.296875 4.45432 0.296875 6.6673 0.296875C7.23472 0.296875 7.84471 0.396175 8.2561 0.807562C8.61074 1.14802 8.69586 1.65871 8.79516 2.11265C9.23491 4.32562 9.71723 6.52441 10.157 8.73739C9.0505 5.99954 6.92264 3.72982 4.32665 2.33962C2.979 1.58778 1.50369 1.03453 0 0.665704C0 0.566404 0 0.381989 0 0.296875Z" fill="#FFAA00"/>
<path d="M14.668 0.28274C16.1717 0.268555 17.6754 0.28274 19.1791 0.28274C16.9945 5.43216 14.7532 10.5532 12.5686 15.7168C11.0649 15.7452 9.56117 15.7168 8.05748 15.731C6.82332 11.2625 5.54661 6.80818 4.34082 2.33967C6.93681 3.72987 9.05049 5.99959 10.1712 8.73744L10.1853 8.77999C10.3272 9.43254 10.4549 10.0851 10.5825 10.7518C11.9586 7.26212 13.3062 3.77243 14.668 0.28274ZM20.8388 0.268555C22.2432 0.268555 23.6618 0.28274 25.0804 0.268555C24.2292 5.41798 23.3355 10.5674 22.456 15.7168C21.0374 15.7168 19.6189 15.7168 18.2003 15.7168C19.0798 10.5674 19.9451 5.41798 20.8388 0.268555ZM44.8553 0.296926C46.0611 0.254369 47.2669 0.28274 48.4727 0.28274C49.6075 5.44635 50.7708 10.5958 51.8772 15.7594C50.558 15.7594 49.2529 15.7594 47.9336 15.7594C47.7634 14.9933 47.5931 14.2273 47.4371 13.4613C45.6497 13.4187 43.8481 13.4329 42.0607 13.4471C41.777 14.2273 41.4791 14.9792 41.1954 15.7594C39.7059 15.7594 38.2164 15.7594 36.7269 15.7594C38.8122 11.0213 40.9117 6.28331 43.0112 1.54527C43.2807 0.779241 44.0609 0.325298 44.8553 0.296926ZM45.4795 4.5952C45.9192 6.45353 46.3022 8.32605 46.7136 10.1986C45.5788 10.1986 44.4439 10.2128 43.309 10.1844C44.0467 8.34024 44.7702 6.46772 45.4795 4.5952Z" fill="#004489"/>
</svg>
