<svg width="10" height="16" viewBox="0 0 10 16" fill="none" xmlns="http://www.w3.org/2000/svg">
<path opacity="0.5" d="M1.5 1C1.5 0.46875 1.9375 0 2.5 0C3.03125 0 3.5 0.46875 3.5 1V2H4.5V1C4.5 0.46875 4.9375 0 5.5 0C6.03125 0 6.5 0.46875 6.5 1V2C6.5 2.0625 6.46875 2.125 6.46875 2.15625C7.9375 2.59375 9 3.9375 9 5.5C9 6.28125 8.75 6.96875 8.34375 7.53125C9.3125 8.15625 10 9.25 10 10.5C10 12.4375 8.40625 14 6.5 14V15C6.5 15.5625 6.03125 16 5.5 16C4.9375 16 4.5 15.5625 4.5 15V14H3.5V15C3.5 15.5625 3.03125 16 2.5 16C1.9375 16 1.5 15.5625 1.5 15V14H1.28125C0.5625 14 0 13.4375 0 12.7188V3.1875C0 2.53125 0.5 2 1.15625 2H1.5V1ZM5.5 7C6.3125 7 7 6.34375 7 5.5C7 4.6875 6.3125 4 5.5 4H2V7H5.5ZM2 9V12H6.5C7.3125 12 8 11.3438 8 10.5C8 9.6875 7.3125 9 6.5 9H2Z" fill="#0D121F"/>
</svg>
