<svg width="20" height="16" viewBox="0 0 20 16" fill="none" xmlns="http://www.w3.org/2000/svg">
<path opacity="0.5" d="M2 5C2 5.5625 1.53125 6 1 6C0.4375 6 0 5.5625 0 5V3C0 1.34375 1.3125 0 3 0H17C18.6562 0 20 1.34375 20 3V5C20 5.5625 19.5312 6 19 6C18.4375 6 18 5.5625 18 5V3C18 2.46875 17.5312 2 17 2H3C2.4375 2 2 2.46875 2 3V5ZM4 3H16V14C16 15.125 15.0938 16 14 16H6C4.875 16 4 15.125 4 14V3ZM13 8.5C13 7.125 11.6562 6 10 6C8.3125 6 7 7.125 7 8.5C7 9.90625 8.3125 11 10 11C11.6562 11 13 9.90625 13 8.5Z" fill="#0D121F"/>
</svg>
